<svg version="1.1" id="ps" xmlns="http://www.w3.org/2000/svg" xmlns:xlink="http://www.w3.org/1999/xlink" x="0px" y="0px"
	 viewBox="0 0 13.974 13.974" xml:space="preserve">
<path d="M13.974,0.732c0,4.178,0,8.356,0,12.534c-0.029,0.075-0.054,0.152-0.089,0.224c-0.13,0.274-0.365,0.412-0.647,0.484
	c-4.159,0-8.317,0-12.476,0c-0.58-0.202-0.735-0.424-0.735-1.048c0-2.36,0-4.721,0-7.081c0-1.63,0-3.259,0-4.889
	c0-0.578,0.355-0.931,0.935-0.932c0.1,0,0.2,0,0.3,0c3.916,0,7.833,0,11.749-0.001c0.204,0,0.397,0.029,0.572,0.14
	C13.794,0.298,13.901,0.503,13.974,0.732z M2.326,2.838c0,2.553,0,5.07,0,7.586c0.574,0,1.139,0,1.712,0c0-0.463,0-0.916,0-1.37
	c0-0.452,0-0.904,0-1.36c0.042,0,0.064-0.002,0.086,0c0.628,0.05,1.252,0.027,1.86-0.154c0.57-0.17,1.067-0.455,1.417-0.952
	C7.707,6.154,7.832,5.66,7.833,5.138c0.003-0.78-0.274-1.436-0.924-1.902C6.432,2.894,5.881,2.755,5.31,2.729
	C4.695,2.7,4.077,2.713,3.461,2.732C3.082,2.744,2.704,2.801,2.326,2.838z M7.921,10.161c0.081,0.038,0.153,0.075,0.228,0.105
	c0.628,0.252,1.284,0.312,1.952,0.265c0.429-0.031,0.838-0.137,1.218-0.351c1.055-0.595,1.096-2.145,0.118-2.75
	c-0.298-0.184-0.633-0.309-0.952-0.458C10.3,6.885,10.108,6.814,9.93,6.717C9.791,6.641,9.71,6.515,9.728,6.345
	c0.019-0.178,0.124-0.287,0.283-0.351c0.038-0.015,0.078-0.034,0.117-0.033c0.23,0.003,0.464-0.017,0.687,0.025
	c0.264,0.049,0.518,0.152,0.785,0.234c0.097-0.38,0.198-0.773,0.301-1.176c-0.787-0.306-1.574-0.411-2.386-0.205
	C9.028,4.963,8.62,5.212,8.335,5.635c-0.34,0.503-0.416,1.274,0.053,1.826C8.647,7.766,8.98,7.964,9.344,8.116
	c0.292,0.122,0.59,0.232,0.877,0.366c0.186,0.087,0.268,0.254,0.235,0.463c-0.031,0.195-0.164,0.294-0.343,0.345
	C9.817,9.373,9.517,9.355,9.226,9.276C8.891,9.185,8.563,9.068,8.219,8.957C8.125,9.338,8.024,9.745,7.921,10.161z"/>
<path d="M4.039,6.341c0-0.062,0-0.111,0-0.161c0-0.649,0.003-1.298-0.003-1.946C4.035,4.113,4.059,4.059,4.191,4.043
	c0.362-0.042,0.722-0.063,1.081,0.022c0.536,0.126,0.847,0.532,0.839,1.1C6.103,5.751,5.739,6.19,5.167,6.318
	C4.798,6.401,4.43,6.394,4.039,6.341z"/>
</svg>
